<mxfile host="app.diagrams.net" modified="2024-06-19T01:59:43.010Z" agent="Mozilla/5.0 (Windows NT 10.0; Win64; x64) AppleWebKit/537.36 (KHTML, like Gecko) Chrome/125.0.0.0 Safari/537.36" etag="1qTsdib2AfSMFawmDAXo" version="24.5.4" type="github">
  <diagram name="第 1 页" id="-AdflMlbAZ0lLxtPM5mr">
    <mxGraphModel dx="1014" dy="666" grid="1" gridSize="10" guides="1" tooltips="1" connect="1" arrows="0" fold="1" page="1" pageScale="1" pageWidth="827" pageHeight="1169" math="0" shadow="0">
      <root>
        <mxCell id="0" />
        <mxCell id="1" parent="0" />
        <mxCell id="uMnVHPd5ohVLabaKNJ_1-5" style="rounded=0;orthogonalLoop=1;jettySize=auto;html=1;exitX=0.55;exitY=0.95;exitDx=0;exitDy=0;exitPerimeter=0;entryX=0.5;entryY=0;entryDx=0;entryDy=0;shadow=0;" edge="1" parent="1" source="uMnVHPd5ohVLabaKNJ_1-1" target="uMnVHPd5ohVLabaKNJ_1-2">
          <mxGeometry relative="1" as="geometry" />
        </mxCell>
        <mxCell id="uMnVHPd5ohVLabaKNJ_1-1" value="internet" style="ellipse;shape=cloud;whiteSpace=wrap;html=1;shadow=0;" vertex="1" parent="1">
          <mxGeometry x="120" y="50" width="100" height="50" as="geometry" />
        </mxCell>
        <mxCell id="uMnVHPd5ohVLabaKNJ_1-4" value="" style="rounded=0;orthogonalLoop=1;jettySize=auto;html=1;shadow=0;" edge="1" parent="1" source="uMnVHPd5ohVLabaKNJ_1-2" target="uMnVHPd5ohVLabaKNJ_1-3">
          <mxGeometry relative="1" as="geometry" />
        </mxCell>
        <mxCell id="uMnVHPd5ohVLabaKNJ_1-2" value="fw" style="rounded=1;whiteSpace=wrap;html=1;shadow=0;" vertex="1" parent="1">
          <mxGeometry x="120" y="150" width="110" height="40" as="geometry" />
        </mxCell>
        <mxCell id="uMnVHPd5ohVLabaKNJ_1-6" style="rounded=0;orthogonalLoop=1;jettySize=auto;html=1;exitX=0.5;exitY=1;exitDx=0;exitDy=0;entryX=0.5;entryY=0;entryDx=0;entryDy=0;shadow=0;" edge="1" parent="1" source="uMnVHPd5ohVLabaKNJ_1-3" target="uMnVHPd5ohVLabaKNJ_1-7">
          <mxGeometry relative="1" as="geometry">
            <mxPoint x="180" y="390" as="targetPoint" />
          </mxGeometry>
        </mxCell>
        <mxCell id="uMnVHPd5ohVLabaKNJ_1-3" value="LLC" style="whiteSpace=wrap;html=1;rounded=1;shadow=0;" vertex="1" parent="1">
          <mxGeometry x="110" y="230" width="130" height="50" as="geometry" />
        </mxCell>
        <mxCell id="uMnVHPd5ohVLabaKNJ_1-14" style="rounded=0;orthogonalLoop=1;jettySize=auto;html=1;exitX=0.5;exitY=1;exitDx=0;exitDy=0;entryX=0.5;entryY=0;entryDx=0;entryDy=0;shadow=0;" edge="1" parent="1" source="uMnVHPd5ohVLabaKNJ_1-7" target="uMnVHPd5ohVLabaKNJ_1-9">
          <mxGeometry relative="1" as="geometry" />
        </mxCell>
        <mxCell id="uMnVHPd5ohVLabaKNJ_1-7" value="互联网L3GW" style="whiteSpace=wrap;html=1;rounded=1;shadow=0;" vertex="1" parent="1">
          <mxGeometry x="115" y="370" width="125" height="50" as="geometry" />
        </mxCell>
        <mxCell id="uMnVHPd5ohVLabaKNJ_1-15" style="rounded=0;orthogonalLoop=1;jettySize=auto;html=1;exitX=0.5;exitY=0;exitDx=0;exitDy=0;entryX=0.5;entryY=1;entryDx=0;entryDy=0;shadow=0;" edge="1" parent="1" source="uMnVHPd5ohVLabaKNJ_1-9" target="uMnVHPd5ohVLabaKNJ_1-11">
          <mxGeometry relative="1" as="geometry" />
        </mxCell>
        <mxCell id="uMnVHPd5ohVLabaKNJ_1-16" style="rounded=0;orthogonalLoop=1;jettySize=auto;html=1;exitX=1;exitY=0.5;exitDx=0;exitDy=0;entryX=0;entryY=0.5;entryDx=0;entryDy=0;shadow=0;" edge="1" parent="1" source="uMnVHPd5ohVLabaKNJ_1-9" target="uMnVHPd5ohVLabaKNJ_1-12">
          <mxGeometry relative="1" as="geometry" />
        </mxCell>
        <mxCell id="uMnVHPd5ohVLabaKNJ_1-27" style="rounded=0;orthogonalLoop=1;jettySize=auto;html=1;exitX=0.5;exitY=1;exitDx=0;exitDy=0;entryX=0.5;entryY=0;entryDx=0;entryDy=0;shadow=0;" edge="1" parent="1" source="uMnVHPd5ohVLabaKNJ_1-9" target="uMnVHPd5ohVLabaKNJ_1-21">
          <mxGeometry relative="1" as="geometry" />
        </mxCell>
        <mxCell id="uMnVHPd5ohVLabaKNJ_1-28" style="rounded=0;orthogonalLoop=1;jettySize=auto;html=1;exitX=0.5;exitY=0;exitDx=0;exitDy=0;entryX=0.5;entryY=1;entryDx=0;entryDy=0;shadow=0;" edge="1" parent="1" source="uMnVHPd5ohVLabaKNJ_1-23" target="uMnVHPd5ohVLabaKNJ_1-9">
          <mxGeometry relative="1" as="geometry">
            <mxPoint x="375" y="580" as="targetPoint" />
          </mxGeometry>
        </mxCell>
        <mxCell id="uMnVHPd5ohVLabaKNJ_1-29" style="rounded=0;orthogonalLoop=1;jettySize=auto;html=1;exitX=0.5;exitY=1;exitDx=0;exitDy=0;entryX=0.5;entryY=0;entryDx=0;entryDy=0;shadow=0;" edge="1" parent="1" source="uMnVHPd5ohVLabaKNJ_1-9" target="uMnVHPd5ohVLabaKNJ_1-22">
          <mxGeometry relative="1" as="geometry" />
        </mxCell>
        <mxCell id="uMnVHPd5ohVLabaKNJ_1-30" style="rounded=0;orthogonalLoop=1;jettySize=auto;html=1;exitX=0.5;exitY=1;exitDx=0;exitDy=0;shadow=0;" edge="1" parent="1" source="uMnVHPd5ohVLabaKNJ_1-9" target="uMnVHPd5ohVLabaKNJ_1-24">
          <mxGeometry relative="1" as="geometry" />
        </mxCell>
        <mxCell id="uMnVHPd5ohVLabaKNJ_1-9" value="Spine" style="rounded=1;whiteSpace=wrap;html=1;shadow=0;" vertex="1" parent="1">
          <mxGeometry x="245" y="460" width="240" height="130" as="geometry" />
        </mxCell>
        <mxCell id="uMnVHPd5ohVLabaKNJ_1-44" style="rounded=0;orthogonalLoop=1;jettySize=auto;html=1;exitX=1;exitY=0.5;exitDx=0;exitDy=0;entryX=0;entryY=0.5;entryDx=0;entryDy=0;shadow=0;" edge="1" parent="1" source="uMnVHPd5ohVLabaKNJ_1-10" target="uMnVHPd5ohVLabaKNJ_1-19">
          <mxGeometry relative="1" as="geometry" />
        </mxCell>
        <mxCell id="uMnVHPd5ohVLabaKNJ_1-18" style="rounded=0;orthogonalLoop=1;jettySize=auto;html=1;exitX=0.5;exitY=0;exitDx=0;exitDy=0;entryX=0.5;entryY=1;entryDx=0;entryDy=0;shadow=0;" edge="1" parent="1" source="uMnVHPd5ohVLabaKNJ_1-19" target="uMnVHPd5ohVLabaKNJ_1-17">
          <mxGeometry relative="1" as="geometry" />
        </mxCell>
        <mxCell id="uMnVHPd5ohVLabaKNJ_1-11" value="外联L3GW" style="whiteSpace=wrap;html=1;rounded=1;shadow=0;" vertex="1" parent="1">
          <mxGeometry x="580" y="370" width="125" height="50" as="geometry" />
        </mxCell>
        <mxCell id="uMnVHPd5ohVLabaKNJ_1-41" style="rounded=0;orthogonalLoop=1;jettySize=auto;html=1;exitX=1;exitY=0.5;exitDx=0;exitDy=0;entryX=0;entryY=0.5;entryDx=0;entryDy=0;shadow=0;" edge="1" parent="1" source="uMnVHPd5ohVLabaKNJ_1-12" target="uMnVHPd5ohVLabaKNJ_1-40">
          <mxGeometry relative="1" as="geometry" />
        </mxCell>
        <mxCell id="uMnVHPd5ohVLabaKNJ_1-42" style="rounded=0;orthogonalLoop=1;jettySize=auto;html=1;exitX=1;exitY=0.5;exitDx=0;exitDy=0;entryX=0;entryY=0.5;entryDx=0;entryDy=0;shadow=0;" edge="1" parent="1" source="uMnVHPd5ohVLabaKNJ_1-12" target="uMnVHPd5ohVLabaKNJ_1-39">
          <mxGeometry relative="1" as="geometry" />
        </mxCell>
        <mxCell id="uMnVHPd5ohVLabaKNJ_1-12" value="L2BR" style="whiteSpace=wrap;html=1;rounded=1;shadow=0;" vertex="1" parent="1">
          <mxGeometry x="530" y="500" width="80" height="50" as="geometry" />
        </mxCell>
        <mxCell id="uMnVHPd5ohVLabaKNJ_1-13" value="" style="endArrow=none;html=1;rounded=0;entryX=0.5;entryY=1;entryDx=0;entryDy=0;exitX=0.5;exitY=0;exitDx=0;exitDy=0;shadow=0;" edge="1" parent="1" source="uMnVHPd5ohVLabaKNJ_1-9" target="uMnVHPd5ohVLabaKNJ_1-10">
          <mxGeometry width="50" height="50" relative="1" as="geometry">
            <mxPoint x="400" y="510" as="sourcePoint" />
            <mxPoint x="450" y="460" as="targetPoint" />
          </mxGeometry>
        </mxCell>
        <mxCell id="uMnVHPd5ohVLabaKNJ_1-17" value="border leaf" style="whiteSpace=wrap;html=1;rounded=1;shadow=0;" vertex="1" parent="1">
          <mxGeometry x="580" y="170" width="125" height="50" as="geometry" />
        </mxCell>
        <mxCell id="uMnVHPd5ohVLabaKNJ_1-20" value="" style="rounded=0;orthogonalLoop=1;jettySize=auto;html=1;shadow=0;" edge="1" parent="1" source="uMnVHPd5ohVLabaKNJ_1-19" target="uMnVHPd5ohVLabaKNJ_1-11">
          <mxGeometry relative="1" as="geometry" />
        </mxCell>
        <mxCell id="uMnVHPd5ohVLabaKNJ_1-19" value="防火墙" style="whiteSpace=wrap;html=1;rounded=1;shadow=0;" vertex="1" parent="1">
          <mxGeometry x="580" y="260" width="125" height="50" as="geometry" />
        </mxCell>
        <mxCell id="uMnVHPd5ohVLabaKNJ_1-31" style="rounded=0;orthogonalLoop=1;jettySize=auto;html=1;exitX=0.5;exitY=1;exitDx=0;exitDy=0;shadow=0;entryX=0.5;entryY=0;entryDx=0;entryDy=0;" edge="1" parent="1" source="uMnVHPd5ohVLabaKNJ_1-21" target="uMnVHPd5ohVLabaKNJ_1-48">
          <mxGeometry relative="1" as="geometry" />
        </mxCell>
        <mxCell id="uMnVHPd5ohVLabaKNJ_1-21" value="计算serverleaf" style="whiteSpace=wrap;html=1;rounded=1;shadow=0;" vertex="1" parent="1">
          <mxGeometry x="372.5" y="670" width="125" height="50" as="geometry" />
        </mxCell>
        <mxCell id="uMnVHPd5ohVLabaKNJ_1-33" style="rounded=0;orthogonalLoop=1;jettySize=auto;html=1;exitX=0.5;exitY=1;exitDx=0;exitDy=0;entryX=0.5;entryY=0;entryDx=0;entryDy=0;shadow=0;" edge="1" parent="1" source="uMnVHPd5ohVLabaKNJ_1-22" target="uMnVHPd5ohVLabaKNJ_1-49">
          <mxGeometry relative="1" as="geometry" />
        </mxCell>
        <mxCell id="uMnVHPd5ohVLabaKNJ_1-22" value="网络serverleaf" style="whiteSpace=wrap;html=1;rounded=1;shadow=0;" vertex="1" parent="1">
          <mxGeometry x="200" y="670" width="125" height="50" as="geometry" />
        </mxCell>
        <mxCell id="uMnVHPd5ohVLabaKNJ_1-23" value="管理serverleaf" style="whiteSpace=wrap;html=1;rounded=1;shadow=0;" vertex="1" parent="1">
          <mxGeometry x="30" y="670" width="125" height="50" as="geometry" />
        </mxCell>
        <mxCell id="uMnVHPd5ohVLabaKNJ_1-24" value="存储serverleaf" style="whiteSpace=wrap;html=1;rounded=1;shadow=0;" vertex="1" parent="1">
          <mxGeometry x="550" y="670" width="125" height="50" as="geometry" />
        </mxCell>
        <mxCell id="uMnVHPd5ohVLabaKNJ_1-35" style="rounded=0;orthogonalLoop=1;jettySize=auto;html=1;exitX=0.5;exitY=0;exitDx=0;exitDy=0;entryX=0.5;entryY=1;entryDx=0;entryDy=0;shadow=0;" edge="1" parent="1" source="uMnVHPd5ohVLabaKNJ_1-50" target="uMnVHPd5ohVLabaKNJ_1-23">
          <mxGeometry relative="1" as="geometry" />
        </mxCell>
        <mxCell id="uMnVHPd5ohVLabaKNJ_1-36" value="外联" style="ellipse;shape=cloud;whiteSpace=wrap;html=1;shadow=0;" vertex="1" parent="1">
          <mxGeometry x="590" y="50" width="100" height="50" as="geometry" />
        </mxCell>
        <mxCell id="uMnVHPd5ohVLabaKNJ_1-38" style="rounded=0;orthogonalLoop=1;jettySize=auto;html=1;exitX=0.55;exitY=0.95;exitDx=0;exitDy=0;exitPerimeter=0;entryX=0.5;entryY=0;entryDx=0;entryDy=0;shadow=0;" edge="1" parent="1" source="uMnVHPd5ohVLabaKNJ_1-37" target="uMnVHPd5ohVLabaKNJ_1-10">
          <mxGeometry relative="1" as="geometry" />
        </mxCell>
        <mxCell id="uMnVHPd5ohVLabaKNJ_1-37" value="支撑" style="ellipse;shape=cloud;whiteSpace=wrap;html=1;shadow=0;" vertex="1" parent="1">
          <mxGeometry x="310" y="50" width="100" height="50" as="geometry" />
        </mxCell>
        <mxCell id="uMnVHPd5ohVLabaKNJ_1-39" value="F5负载" style="whiteSpace=wrap;html=1;rounded=1;shadow=0;" vertex="1" parent="1">
          <mxGeometry x="700" y="540" width="125" height="50" as="geometry" />
        </mxCell>
        <mxCell id="uMnVHPd5ohVLabaKNJ_1-40" value="SSL卸载" style="whiteSpace=wrap;html=1;rounded=1;shadow=0;" vertex="1" parent="1">
          <mxGeometry x="700" y="460" width="125" height="50" as="geometry" />
        </mxCell>
        <mxCell id="uMnVHPd5ohVLabaKNJ_1-43" style="rounded=0;orthogonalLoop=1;jettySize=auto;html=1;exitX=0.5;exitY=0;exitDx=0;exitDy=0;entryX=0.55;entryY=0.95;entryDx=0;entryDy=0;entryPerimeter=0;shadow=0;" edge="1" parent="1" source="uMnVHPd5ohVLabaKNJ_1-17" target="uMnVHPd5ohVLabaKNJ_1-36">
          <mxGeometry relative="1" as="geometry" />
        </mxCell>
        <mxCell id="uMnVHPd5ohVLabaKNJ_1-48" value="宿主机" style="swimlane;whiteSpace=wrap;html=1;" vertex="1" parent="1">
          <mxGeometry x="360" y="800" width="150" height="120" as="geometry" />
        </mxCell>
        <mxCell id="uMnVHPd5ohVLabaKNJ_1-26" value="业务VM" style="whiteSpace=wrap;html=1;rounded=1;shadow=0;" vertex="1" parent="uMnVHPd5ohVLabaKNJ_1-48">
          <mxGeometry x="10" y="65" width="125" height="50" as="geometry" />
        </mxCell>
        <mxCell id="uMnVHPd5ohVLabaKNJ_1-49" value="宿主机" style="swimlane;whiteSpace=wrap;html=1;" vertex="1" parent="1">
          <mxGeometry x="187.5" y="800" width="150" height="120" as="geometry" />
        </mxCell>
        <mxCell id="uMnVHPd5ohVLabaKNJ_1-32" value="网元VM" style="whiteSpace=wrap;html=1;rounded=1;shadow=0;" vertex="1" parent="uMnVHPd5ohVLabaKNJ_1-49">
          <mxGeometry x="7.5" y="65" width="125" height="50" as="geometry" />
        </mxCell>
        <mxCell id="uMnVHPd5ohVLabaKNJ_1-50" value="宿主机" style="swimlane;whiteSpace=wrap;html=1;" vertex="1" parent="1">
          <mxGeometry x="17.5" y="800" width="150" height="120" as="geometry" />
        </mxCell>
        <mxCell id="uMnVHPd5ohVLabaKNJ_1-34" value="管理VM" style="whiteSpace=wrap;html=1;rounded=1;shadow=0;" vertex="1" parent="uMnVHPd5ohVLabaKNJ_1-50">
          <mxGeometry x="4" y="65" width="125" height="50" as="geometry" />
        </mxCell>
        <mxCell id="uMnVHPd5ohVLabaKNJ_1-53" value="云内" style="text;html=1;align=center;verticalAlign=middle;resizable=0;points=[];autosize=1;strokeColor=none;fillColor=none;" vertex="1" parent="1">
          <mxGeometry x="30" y="320" width="50" height="30" as="geometry" />
        </mxCell>
        <mxCell id="uMnVHPd5ohVLabaKNJ_1-56" value="" style="group" vertex="1" connectable="0" parent="1">
          <mxGeometry x="40" y="120" width="760" height="200" as="geometry" />
        </mxCell>
        <mxCell id="uMnVHPd5ohVLabaKNJ_1-51" value="" style="endArrow=none;dashed=1;html=1;dashPattern=1 3;strokeWidth=2;rounded=0;" edge="1" parent="uMnVHPd5ohVLabaKNJ_1-56">
          <mxGeometry width="50" height="50" relative="1" as="geometry">
            <mxPoint x="240" as="sourcePoint" />
            <mxPoint x="760" as="targetPoint" />
          </mxGeometry>
        </mxCell>
        <mxCell id="uMnVHPd5ohVLabaKNJ_1-54" value="" style="endArrow=none;dashed=1;html=1;dashPattern=1 3;strokeWidth=2;rounded=0;" edge="1" parent="uMnVHPd5ohVLabaKNJ_1-56">
          <mxGeometry width="50" height="50" relative="1" as="geometry">
            <mxPoint x="240" y="200" as="sourcePoint" />
            <mxPoint x="240" as="targetPoint" />
          </mxGeometry>
        </mxCell>
        <mxCell id="uMnVHPd5ohVLabaKNJ_1-55" value="" style="endArrow=none;dashed=1;html=1;dashPattern=1 3;strokeWidth=2;rounded=0;" edge="1" parent="uMnVHPd5ohVLabaKNJ_1-56">
          <mxGeometry width="50" height="50" relative="1" as="geometry">
            <mxPoint y="200" as="sourcePoint" />
            <mxPoint x="240" y="200" as="targetPoint" />
          </mxGeometry>
        </mxCell>
        <mxCell id="uMnVHPd5ohVLabaKNJ_1-52" value="云外" style="text;html=1;align=center;verticalAlign=middle;resizable=0;points=[];autosize=1;strokeColor=none;fillColor=none;" vertex="1" parent="uMnVHPd5ohVLabaKNJ_1-56">
          <mxGeometry x="-10" y="170" width="50" height="30" as="geometry" />
        </mxCell>
        <mxCell id="uMnVHPd5ohVLabaKNJ_1-10" value="border leaf" style="whiteSpace=wrap;html=1;rounded=1;shadow=0;" vertex="1" parent="uMnVHPd5ohVLabaKNJ_1-56">
          <mxGeometry x="262.5" y="140" width="125" height="50" as="geometry" />
        </mxCell>
      </root>
    </mxGraphModel>
  </diagram>
</mxfile>
